<svg xmlns="http://www.w3.org/2000/svg" width="240" height="240" viewBox="0 0 240 240" role="img" aria-label="公众号二维码占位图">
  <rect width="240" height="240" rx="16" fill="#fffdf8"/>
  <rect x="18" y="18" width="204" height="204" rx="12" fill="#ffffff" stroke="#cfc4b3" stroke-width="2"/>
  <g fill="#101826">
    <rect x="36" y="36" width="48" height="48" rx="6"/>
    <rect x="156" y="36" width="48" height="48" rx="6"/>
    <rect x="36" y="156" width="48" height="48" rx="6"/>
    <rect x="100" y="42" width="16" height="16"/>
    <rect x="124" y="42" width="16" height="16"/>
    <rect x="100" y="70" width="40" height="16"/>
    <rect x="96" y="104" width="20" height="20"/>
    <rect x="128" y="100" width="16" height="44"/>
    <rect x="156" y="104" width="48" height="16"/>
    <rect x="100" y="156" width="16" height="48"/>
    <rect x="128" y="164" width="32" height="16"/>
    <rect x="176" y="148" width="28" height="56"/>
  </g>
  <g fill="#fffdf8">
    <rect x="48" y="48" width="24" height="24" rx="3"/>
    <rect x="168" y="48" width="24" height="24" rx="3"/>
    <rect x="48" y="168" width="24" height="24" rx="3"/>
  </g>
  <text x="120" y="225" text-anchor="middle" font-family="monospace" font-size="12" fill="#6f6f6f">PLACEHOLDER</text>
</svg>
